<?xml version="1.0" encoding="utf-8"?>
<!-- Generator: Adobe Illustrator 25.2.3, SVG Export Plug-In . SVG Version: 6.00 Build 0)  -->
<svg version="1.1" id="Layer_1" xmlns="http://www.w3.org/2000/svg" xmlns:xlink="http://www.w3.org/1999/xlink" x="0px" y="0px"
	 viewBox="0 0 79.4 190.5" style="enable-background:new 0 0 79.4 190.5;" xml:space="preserve">
<style type="text/css">
	.st0{fill:#3E3E3E;}
	.st1{fill:none;stroke:#3E3E3E;stroke-width:9;stroke-linecap:round;stroke-linejoin:round;stroke-miterlimit:10;}
</style>
<g>
	<path class="st0" d="M50.2,121.6c6.7-1.8,12.7-5.4,17.5-10.2c7.2-7.2,11.7-17.1,11.7-28V39.7c0-10.9-4.5-20.8-11.7-28
		S50.6,0,39.7,0s-20.8,4.5-28,11.6S0,28.8,0,39.7v43.7c0,10.9,4.5,20.8,11.6,28c5.6,5.6,12.8,9.5,20.9,11
		C37.4,123.3,45.7,122.9,50.2,121.6L50.2,121.6L50.2,121.6z M39.2,92.1c4.2,0,7.5-3.4,7.5-7.6v-7.8c0-4.2-3.4-7.6-7.5-7.6
		s-7.5,3.4-7.5,7.6v7.8C31.7,88.7,35.1,92.1,39.2,92.1L39.2,92.1z M61.1,104.8c-5.5,5.5-13.1,8.9-21.4,8.9s-15.9-3.4-21.4-8.9
		S9.4,91.7,9.4,83.4V39.7c0-8.3,3.4-15.9,8.9-21.4s13.1-8.9,21.4-8.9s15.9,3.4,21.4,8.9S70,31.4,70,39.7v43.7
		C70,91.7,66.6,99.3,61.1,104.8L61.1,104.8L61.1,104.8z"/>
</g>
<polyline class="st1" points="5.2,126.8 39.3,156.3 74.2,126.8 "/>
<polyline class="st1" points="5.2,151.2 39.3,180.7 74.2,151.2 "/>
</svg>
